<svg width="483" height="617" viewBox="0 0 483 617" fill="none" xmlns="http://www.w3.org/2000/svg">
<circle cx="228" cy="100" r="97.5" stroke="#EAEAEA" stroke-width="5"/>
<circle cx="228" cy="100" r="79" stroke="#EAEAEA" stroke-width="2"/>
<ellipse cx="266.621" cy="60.1792" rx="9.93221" ry="31.6991" transform="rotate(-42.0986 266.621 60.1792)" fill="#EAEAEA" fill-opacity="0.09"/>
<path d="M323 82C323 77.0294 327.029 73 332 73C336.971 73 341 77.0294 341 82V118C341 122.971 336.971 127 332 127C327.029 127 323 122.971 323 118V82Z" fill="#EAEAEA"/>
<path d="M115 82C115 77.0294 119.029 73 124 73C128.971 73 133 77.0294 133 82V118C133 122.971 128.971 127 124 127C119.029 127 115 122.971 115 118V82Z" fill="#EAEAEA"/>
<rect x="200.265" y="395.974" width="67.4136" height="63.1486" rx="7" transform="rotate(93.6077 200.265 395.974)" fill="#EAEAEA"/>
<rect x="185.202" y="467" width="85.3257" height="42.6401" rx="7" transform="rotate(81.7826 185.202 467)" fill="#EAEAEA"/>
<path d="M141 465L180.5 468L145 483.5L141 465Z" fill="#EAEAEA"/>
<path d="M153.5 544L193.5 551.5L155.98 564.621L153.5 544Z" fill="#EAEAEA"/>
<rect x="203.219" y="554" width="41.126" height="51.4817" rx="7" transform="rotate(69.4906 203.219 554)" fill="#EAEAEA"/>
<path d="M205.316 597.766C196.277 585.762 142.277 564.262 156.316 616.266L205.316 597.766Z" fill="#8B8B8B"/>
<ellipse cx="214.933" cy="588.64" rx="3" ry="4" transform="rotate(-15 214.933 588.64)" fill="#8B8B8B"/>
<rect x="322.42" y="451.883" width="85.3257" height="42.6401" rx="7" transform="rotate(62.6686 322.42 451.883)" fill="#EAEAEA"/>
<path d="M280 464.468L318.305 454.368L289.837 480.638L280 464.468Z" fill="#EAEAEA"/>
<path d="M317.679 535.019L357.93 529.008L326.775 553.691L317.679 535.019Z" fill="#EAEAEA"/>
<rect x="311.997" y="382" width="67.4136" height="63.1486" rx="7" transform="rotate(75 311.997 382)" fill="#EAEAEA"/>
<rect x="367.033" y="529.61" width="41.126" height="51.4817" rx="7" transform="rotate(52.3543 367.033 529.61)" fill="#EAEAEA"/>
<path d="M381.934 570.816C369.758 562.008 311.821 557.373 340.56 602.932L381.934 570.816Z" fill="#8B8B8B"/>
<ellipse cx="388.435" cy="559.261" rx="3" ry="4" transform="rotate(-32.1362 388.435 559.261)" fill="#8B8B8B"/>
<rect x="175.5" y="225.5" width="104" height="64" rx="19.5" stroke="#EAEAEA"/>
<path fill-rule="evenodd" clip-rule="evenodd" d="M198 233C189.716 233 183 239.716 183 248V268C183 276.284 189.716 283 198 283H258C266.284 283 273 276.284 273 268V248C273 239.716 266.284 233 258 233H198ZM191 245H211V250H191V245ZM250 245H220V270H250V245ZM191 255H211V260H191V255ZM211 265H191V270H211V265ZM267 249.5C267 251.985 264.985 254 262.5 254C260.015 254 258 251.985 258 249.5C258 247.015 260.015 245 262.5 245C264.985 245 267 247.015 267 249.5ZM262.5 270C264.985 270 267 267.985 267 265.5C267 263.015 264.985 261 262.5 261C260.015 261 258 263.015 258 265.5C258 267.985 260.015 270 262.5 270Z" fill="#EAEAEA"/>
<path d="M134.499 200L134.499 358.5" stroke="#EAEAEA" stroke-width="3"/>
<path d="M134.5 200.5C136.333 192.667 145.6 177.5 168 175.5" stroke="#EAEAEA" stroke-width="3"/>
<path d="M323.5 200L323.5 355.5" stroke="#EAEAEA" stroke-width="3"/>
<path d="M323.5 200.5C321.667 192.667 312.4 177.5 290 175.5" stroke="#EAEAEA" stroke-width="3"/>
<rect x="129" y="356" width="203" height="44" rx="7" fill="#EAEAEA"/>
<line x1="202.5" y1="194" x2="202.5" y2="225" stroke="#EAEAEA" stroke-width="5"/>
<line x1="253.5" y1="194" x2="253.5" y2="225" stroke="#EAEAEA" stroke-width="5"/>
<line x1="253.5" y1="290" x2="253.5" y2="358" stroke="#EAEAEA" stroke-width="5"/>
<line x1="202.5" y1="290" x2="202.5" y2="358" stroke="#EAEAEA" stroke-width="5"/>
<rect x="307" y="188.109" width="20.0741" height="65" rx="8" transform="rotate(-6.02991 307 188.109)" fill="#EAEAEA"/>
<rect width="20.0741" height="65" rx="8" transform="matrix(-0.994467 -0.105048 -0.105048 0.994467 149.791 186.109)" fill="#EAEAEA"/>
<rect x="190" y="316" width="25" height="25" rx="5" fill="#EAEAEA"/>
<rect x="241" y="316" width="25" height="25" rx="5" fill="#EAEAEA"/>
<line x1="213" y1="329.5" x2="244" y2="329.5" stroke="#EAEAEA" stroke-width="5"/>
<rect x="122.235" y="207.567" width="53.8819" height="37" rx="7" transform="rotate(114.88 122.235 207.567)" fill="#EAEAEA"/>
<rect x="82.2148" y="290.362" width="76" height="37" rx="7" transform="rotate(114.532 82.2148 290.362)" fill="#EAEAEA"/>
<rect x="91.984" y="272.044" width="5.11016" height="38.191" rx="2.55508" transform="rotate(116.851 91.984 272.044)" fill="#EAEAEA"/>
<rect x="73.2616" y="273.615" width="5.11016" height="20.1231" rx="2.55508" transform="rotate(116.851 73.2616 273.615)" fill="#EAEAEA"/>
<rect x="81.618" y="256.089" width="5.11016" height="20.1231" rx="2.55508" transform="rotate(116.851 81.618 256.089)" fill="#EAEAEA"/>
<path d="M43.9864 364.243C45.0044 364.672 45.4823 365.845 45.0537 366.863L33.6417 393.97C32.1417 397.534 28.0372 399.206 24.4741 397.706L15.4628 393.912C6.92294 390.317 2.91443 380.48 6.50959 371.94L14.128 353.843C14.5566 352.825 15.7293 352.347 16.7473 352.776L43.9864 364.243Z" fill="#EAEAEA"/>
<path d="M36.5302 371.949C35.5122 372.377 35.0343 373.55 35.4629 374.568L38.345 381.414C39.0444 383.075 40.9582 383.855 42.6196 383.156C46.6016 381.479 48.4707 376.892 46.7944 372.91L45.4297 369.669C45.14 368.981 44.3474 368.658 43.6592 368.947L36.5302 371.949Z" fill="#8B8B8B"/>
<path d="M71 205.5C71 194.73 79.7304 186 90.5 186H100C102.761 186 105 188.239 105 191V214C105 215.657 103.657 217 102 217H73C71.8954 217 71 216.105 71 215V205.5Z" fill="#8B8B8B"/>
<rect x="332" y="198.504" width="53.8819" height="37" rx="7" transform="rotate(-18.9567 332 198.504)" fill="#EAEAEA"/>
<rect x="402" y="170.14" width="76" height="37" rx="7" transform="rotate(-65.4684 402 170.14)" fill="#EAEAEA"/>
<rect x="395" y="177.794" width="5.11016" height="38.191" rx="2.55508" transform="rotate(-33.149 395 177.794)" fill="#EAEAEA"/>
<rect x="412" y="185.794" width="5.11016" height="20.1231" rx="2.55508" transform="rotate(-33.149 412 185.794)" fill="#EAEAEA"/>
<rect x="396" y="196.794" width="5.11016" height="20.1231" rx="2.55508" transform="rotate(-33.149 396 196.794)" fill="#EAEAEA"/>
<path d="M438.843 99.1788C437.825 98.7503 437.347 97.5776 437.776 96.5595L449.188 69.4516C450.688 65.8885 454.792 64.216 458.356 65.7161L467.367 69.5097C475.907 73.1048 479.915 82.9422 476.32 91.4821L468.702 109.579C468.273 110.597 467.1 111.075 466.082 110.646L438.843 99.1788Z" fill="#EAEAEA"/>
<path d="M446.3 91.4735C447.318 91.0449 447.795 89.8722 447.367 88.8542L444.485 82.0082C443.785 80.3468 441.871 79.5669 440.21 80.2664C436.228 81.9427 434.359 86.5297 436.035 90.5117L437.4 93.7533C437.69 94.4414 438.482 94.7644 439.17 94.4747L446.3 91.4735Z" fill="#8B8B8B"/>
<path d="M330.047 206.987C327.26 196.585 333.433 185.892 343.836 183.105L346.861 182.294C349.528 181.579 352.27 183.162 352.985 185.83L357.435 202.438C357.863 204.038 356.914 205.683 355.313 206.112L333.452 211.969C332.386 212.255 331.289 211.622 331.003 210.555L330.047 206.987Z" fill="#8B8B8B"/>
</svg>
