<svg width="1701" height="843" viewBox="0 0 1701 843" fill="none" xmlns="http://www.w3.org/2000/svg">
<path d="M1623.13 229.298C1624.84 235.654 1621.17 243.449 1612.22 252.549C1603.3 261.616 1589.26 271.835 1570.61 282.996C1533.29 305.315 1477.6 331.34 1407.65 359.407C1267.76 415.54 1070.93 479.816 850.331 538.927C629.728 598.037 427.133 640.786 277.918 662.118C203.308 672.785 142.062 678.094 98.5901 677.422C76.8503 677.086 59.5858 675.253 47.3266 671.861C35.0228 668.457 27.9546 663.537 26.2516 657.181C24.5487 650.826 28.2099 643.031 37.1631 633.931C46.0839 624.864 60.1193 614.645 78.7784 603.483C116.09 581.165 171.785 555.14 241.733 527.073C381.623 470.939 578.449 406.663 799.053 347.553C1019.66 288.442 1222.25 245.694 1371.47 224.362C1446.08 213.695 1507.32 208.386 1550.79 209.058C1572.53 209.394 1589.8 211.226 1602.06 214.618C1614.36 218.023 1621.43 222.943 1623.13 229.298Z" stroke="#EAEAEA"/>
<path d="M1672.2 246.817C1673.6 252.038 1670.7 259.095 1661.8 268.147C1653.05 277.035 1639.18 287.152 1620.58 298.281C1583.4 320.519 1527.82 346.498 1457.91 374.552C1318.11 430.647 1121.37 494.899 900.814 553.996C680.262 613.093 477.749 655.822 328.635 677.139C254.061 687.801 192.937 693.093 149.621 692.423C127.943 692.088 110.877 690.26 98.8599 686.935C86.6206 683.548 80.5824 678.886 79.1835 673.665C77.7845 668.444 80.6825 661.387 89.5888 652.334C98.3331 643.446 112.199 633.33 130.805 622.201C167.982 599.963 223.564 573.984 293.478 545.93C433.273 489.835 630.019 425.582 850.57 366.486C1071.12 307.389 1273.64 264.66 1422.75 243.342C1497.32 232.681 1558.45 227.389 1601.76 228.059C1623.44 228.394 1640.51 230.222 1652.52 233.547C1664.76 236.934 1670.8 241.596 1672.2 246.817Z" stroke="#424242" stroke-opacity="0.1" stroke-width="5"/>
<circle cx="828.762" cy="443.005" r="397.5" stroke="#EAEAEA" stroke-width="3"/>
<circle cx="817" cy="443.004" r="386" stroke="#8B8B8B" stroke-width="2"/>
<path d="M1169.5 442.504C1169.5 645.743 1004.07 810.504 800 810.504C595.929 810.504 430.5 645.743 430.5 442.504C430.5 239.266 595.929 74.5044 800 74.5044C1004.07 74.5044 1169.5 239.266 1169.5 442.504Z" stroke="#535353"/>
<ellipse cx="654.09" cy="171.068" rx="193.267" ry="74.1716" transform="rotate(-34.7322 654.09 171.068)" fill="#646464" fill-opacity="0.03"/>
</svg>
