<svg width="180" height="67" viewBox="0 0 180 67" fill="none" xmlns="http://www.w3.org/2000/svg">
<path id="circle" d="M53 27C53 41.3594 41.3594 53 27 53C12.6406 53 1 41.3594 1 27C1 12.6406 12.6406 1 27 1C41.3594 1 53 12.6406 53 27Z" fill="#EE664E" stroke="#EE664E" stroke-width="2"/>
<path id="lastname" d="M78.2603 48.7V56.547C78.2603 58.3963 77.76 59.8087 76.7593 60.784C75.7586 61.7467 74.34 62.228 72.5033 62.228C71.5913 62.228 70.7743 62.095 70.0523 61.829C69.343 61.563 68.7603 61.1893 68.3043 60.708C67.8356 61.1893 67.2466 61.563 66.5373 61.829C65.828 62.095 65.0236 62.228 64.1243 62.228C62.2876 62.228 60.869 61.7467 59.8683 60.784C58.8676 59.8087 58.3673 58.3963 58.3673 56.547V48.7H61.4453V56.452C61.4453 57.5287 61.667 58.3267 62.1103 58.846C62.5536 59.3527 63.2123 59.606 64.0863 59.606C65.8723 59.606 66.7653 58.5547 66.7653 56.452V48.7H69.8433V56.452C69.8433 58.5547 70.7426 59.606 72.5413 59.606C74.2893 59.606 75.1633 58.5547 75.1633 56.452V48.7H78.2603ZM94.4686 51.778V62H91.6376V60.822C90.9029 61.7087 89.8389 62.152 88.4456 62.152C87.4829 62.152 86.6089 61.9367 85.8236 61.506C85.0509 61.0753 84.4429 60.461 83.9996 59.663C83.5562 58.865 83.3346 57.9403 83.3346 56.889C83.3346 55.8377 83.5562 54.913 83.9996 54.115C84.4429 53.317 85.0509 52.7027 85.8236 52.272C86.6089 51.8413 87.4829 51.626 88.4456 51.626C89.7502 51.626 90.7699 52.0377 91.5046 52.861V51.778H94.4686ZM88.9586 59.72C89.7059 59.72 90.3266 59.4667 90.8206 58.96C91.3146 58.4407 91.5616 57.7503 91.5616 56.889C91.5616 56.0277 91.3146 55.3437 90.8206 54.837C90.3266 54.3177 89.7059 54.058 88.9586 54.058C88.1986 54.058 87.5716 54.3177 87.0776 54.837C86.5836 55.3437 86.3366 56.0277 86.3366 56.889C86.3366 57.7503 86.5836 58.4407 87.0776 58.96C87.5716 59.4667 88.1986 59.72 88.9586 59.72ZM116.382 51.778V57.421C116.382 58.9283 115.97 60.0937 115.147 60.917C114.323 61.7403 113.152 62.152 111.632 62.152C110.897 62.152 110.245 62.038 109.675 61.81C109.117 61.582 108.649 61.2147 108.269 60.708C107.889 61.2147 107.42 61.582 106.863 61.81C106.305 62.038 105.647 62.152 104.887 62.152C103.354 62.152 102.182 61.7403 101.372 60.917C100.561 60.0937 100.156 58.9283 100.156 57.421V51.778H103.12V57.193C103.12 58.0417 103.265 58.6687 103.557 59.074C103.848 59.4667 104.304 59.663 104.925 59.663C105.558 59.663 106.027 59.4603 106.331 59.055C106.635 58.6497 106.787 58.029 106.787 57.193V51.778H109.751V57.193C109.751 58.029 109.903 58.6497 110.207 59.055C110.511 59.4603 110.979 59.663 111.613 59.663C112.233 59.663 112.689 59.4667 112.981 59.074C113.272 58.6687 113.418 58.0417 113.418 57.193V51.778H116.382ZM124.877 53.127C125.231 52.633 125.706 52.2593 126.302 52.006C126.91 51.7527 127.606 51.626 128.392 51.626V54.362C128.062 54.3367 127.841 54.324 127.727 54.324C126.878 54.324 126.213 54.5647 125.732 55.046C125.25 55.5147 125.01 56.224 125.01 57.174V62H122.046V51.778H124.877V53.127ZM141.74 59.72V62H132.62V60.214L134.653 57.82H133.266V55.844H136.325L137.826 54.058H132.753V51.778H141.569V53.564L139.631 55.863H141.075V57.839H137.959L136.363 59.72H141.74ZM157.028 51.778V60.29C157.028 62.1647 156.553 63.558 155.603 64.47C154.653 65.382 153.273 65.838 151.461 65.838C150.499 65.838 149.587 65.7177 148.725 65.477C147.877 65.2363 147.161 64.888 146.578 64.432L147.756 62.304C148.187 62.6587 148.713 62.9373 149.333 63.14C149.954 63.3427 150.581 63.444 151.214 63.444C152.202 63.444 152.924 63.216 153.38 62.76C153.836 62.304 154.064 61.6073 154.064 60.67V60.328C153.684 60.708 153.235 60.9993 152.715 61.202C152.196 61.4047 151.639 61.506 151.043 61.506C149.701 61.506 148.637 61.126 147.851 60.366C147.066 59.5933 146.673 58.4407 146.673 56.908V51.778H149.637V56.471C149.637 58.1303 150.328 58.96 151.708 58.96C152.418 58.96 152.988 58.732 153.418 58.276C153.849 57.8073 154.064 57.117 154.064 56.205V51.778H157.028ZM167.163 57.991L165.738 59.397V62H162.774V47.902H165.738V55.882L170.07 51.778H173.604L169.348 56.11L173.984 62H170.393L167.163 57.991Z" fill="#EE664E"/>
<path id="firstname" d="M50.867 28.778V39H48.036V37.822C47.3013 38.7087 46.2373 39.152 44.844 39.152C43.8813 39.152 43.0073 38.9367 42.222 38.506C41.4493 38.0753 40.8413 37.461 40.398 36.663C39.9547 35.865 39.733 34.9403 39.733 33.889C39.733 32.8377 39.9547 31.913 40.398 31.115C40.8413 30.317 41.4493 29.7027 42.222 29.272C43.0073 28.8413 43.8813 28.626 44.844 28.626C46.1487 28.626 47.1683 29.0377 47.903 29.861V28.778H50.867ZM45.357 36.72C46.1043 36.72 46.725 36.4667 47.219 35.96C47.713 35.4407 47.96 34.7503 47.96 33.889C47.96 33.0277 47.713 32.3437 47.219 31.837C46.725 31.3177 46.1043 31.058 45.357 31.058C44.597 31.058 43.97 31.3177 43.476 31.837C42.982 32.3437 42.735 33.0277 42.735 33.889C42.735 34.7503 42.982 35.4407 43.476 35.96C43.97 36.4667 44.597 36.72 45.357 36.72ZM67.0232 24.902V39H64.1922V37.822C63.4575 38.7087 62.3935 39.152 61.0002 39.152C60.0375 39.152 59.1635 38.9367 58.3782 38.506C57.6055 38.0753 56.9975 37.461 56.5542 36.663C56.1108 35.865 55.8892 34.9403 55.8892 33.889C55.8892 32.8377 56.1108 31.913 56.5542 31.115C56.9975 30.317 57.6055 29.7027 58.3782 29.272C59.1635 28.8413 60.0375 28.626 61.0002 28.626C62.3048 28.626 63.3245 29.0377 64.0592 29.861V24.902H67.0232ZM61.5132 36.72C62.2605 36.72 62.8812 36.4667 63.3752 35.96C63.8692 35.4407 64.1162 34.7503 64.1162 33.889C64.1162 33.0277 63.8692 32.3437 63.3752 31.837C62.8812 31.3177 62.2605 31.058 61.5132 31.058C60.7532 31.058 60.1262 31.3177 59.6322 31.837C59.1382 32.3437 58.8912 33.0277 58.8912 33.889C58.8912 34.7503 59.1382 35.4407 59.6322 35.96C60.1262 36.4667 60.7532 36.72 61.5132 36.72ZM77.6304 39.152C76.5538 39.152 75.5848 38.9303 74.7234 38.487C73.8748 38.031 73.2098 37.404 72.7284 36.606C72.2471 35.808 72.0064 34.9023 72.0064 33.889C72.0064 32.8757 72.2471 31.97 72.7284 31.172C73.2098 30.374 73.8748 29.7533 74.7234 29.31C75.5848 28.854 76.5538 28.626 77.6304 28.626C78.7071 28.626 79.6698 28.854 80.5184 29.31C81.3671 29.7533 82.0321 30.374 82.5134 31.172C82.9948 31.97 83.2354 32.8757 83.2354 33.889C83.2354 34.9023 82.9948 35.808 82.5134 36.606C82.0321 37.404 81.3671 38.031 80.5184 38.487C79.6698 38.9303 78.7071 39.152 77.6304 39.152ZM77.6304 36.72C78.3904 36.72 79.0111 36.4667 79.4924 35.96C79.9864 35.4407 80.2334 34.7503 80.2334 33.889C80.2334 33.0277 79.9864 32.3437 79.4924 31.837C79.0111 31.3177 78.3904 31.058 77.6304 31.058C76.8704 31.058 76.2434 31.3177 75.7494 31.837C75.2554 32.3437 75.0084 33.0277 75.0084 33.889C75.0084 34.7503 75.2554 35.4407 75.7494 35.96C76.2434 36.4667 76.8704 36.72 77.6304 36.72ZM91.6556 39.152C90.807 39.152 89.9773 39.0507 89.1666 38.848C88.356 38.6327 87.71 38.3667 87.2286 38.05L88.2166 35.922C88.6726 36.2133 89.2236 36.454 89.8696 36.644C90.5156 36.8213 91.149 36.91 91.7696 36.91C93.0236 36.91 93.6506 36.5997 93.6506 35.979C93.6506 35.6877 93.4796 35.4787 93.1376 35.352C92.7956 35.2253 92.27 35.1177 91.5606 35.029C90.7246 34.9023 90.0343 34.7567 89.4896 34.592C88.945 34.4273 88.47 34.136 88.0646 33.718C87.672 33.3 87.4756 32.7047 87.4756 31.932C87.4756 31.286 87.6593 30.716 88.0266 30.222C88.4066 29.7153 88.9513 29.3227 89.6606 29.044C90.3826 28.7653 91.2313 28.626 92.2066 28.626C92.9286 28.626 93.6443 28.7083 94.3536 28.873C95.0756 29.025 95.671 29.2403 96.1396 29.519L95.1516 31.628C94.2523 31.1213 93.2706 30.868 92.2066 30.868C91.5733 30.868 91.0983 30.9567 90.7816 31.134C90.465 31.3113 90.3066 31.5393 90.3066 31.818C90.3066 32.1347 90.4776 32.3563 90.8196 32.483C91.1616 32.6097 91.7063 32.73 92.4536 32.844C93.2896 32.9833 93.9736 33.1353 94.5056 33.3C95.0376 33.452 95.5 33.737 95.8926 34.155C96.2853 34.573 96.4816 35.1557 96.4816 35.903C96.4816 36.5363 96.2916 37.1 95.9116 37.594C95.5316 38.088 94.9743 38.4743 94.2396 38.753C93.5176 39.019 92.6563 39.152 91.6556 39.152ZM104.977 39.152C103.825 39.152 102.925 38.848 102.279 38.24C101.633 37.6193 101.31 36.7453 101.31 35.618V24.902H104.274V35.447C104.274 35.8777 104.382 36.2133 104.597 36.454C104.825 36.682 105.142 36.796 105.547 36.796C105.699 36.796 105.851 36.777 106.003 36.739C106.168 36.701 106.295 36.6567 106.383 36.606L106.516 38.905C106.022 39.0697 105.509 39.152 104.977 39.152ZM121.16 28.778V39H118.329V37.822C117.594 38.7087 116.53 39.152 115.137 39.152C114.174 39.152 113.3 38.9367 112.515 38.506C111.742 38.0753 111.134 37.461 110.691 36.663C110.248 35.865 110.026 34.9403 110.026 33.889C110.026 32.8377 110.248 31.913 110.691 31.115C111.134 30.317 111.742 29.7027 112.515 29.272C113.3 28.8413 114.174 28.626 115.137 28.626C116.442 28.626 117.461 29.0377 118.196 29.861V28.778H121.16ZM115.65 36.72C116.397 36.72 117.018 36.4667 117.512 35.96C118.006 35.4407 118.253 34.7503 118.253 33.889C118.253 33.0277 118.006 32.3437 117.512 31.837C117.018 31.3177 116.397 31.058 115.65 31.058C114.89 31.058 114.263 31.3177 113.769 31.837C113.275 32.3437 113.028 33.0277 113.028 33.889C113.028 34.7503 113.275 35.4407 113.769 35.96C114.263 36.4667 114.89 36.72 115.65 36.72ZM143.073 28.778V34.421C143.073 35.9283 142.661 37.0937 141.838 37.917C141.015 38.7403 139.843 39.152 138.323 39.152C137.588 39.152 136.936 39.038 136.366 38.81C135.809 38.582 135.34 38.2147 134.96 37.708C134.58 38.2147 134.111 38.582 133.554 38.81C132.997 39.038 132.338 39.152 131.578 39.152C130.045 39.152 128.874 38.7403 128.063 37.917C127.252 37.0937 126.847 35.9283 126.847 34.421V28.778H129.811V34.193C129.811 35.0417 129.957 35.6687 130.248 36.074C130.539 36.4667 130.995 36.663 131.616 36.663C132.249 36.663 132.718 36.4603 133.022 36.055C133.326 35.6497 133.478 35.029 133.478 34.193V28.778H136.442V34.193C136.442 35.029 136.594 35.6497 136.898 36.055C137.202 36.4603 137.671 36.663 138.304 36.663C138.925 36.663 139.381 36.4667 139.672 36.074C139.963 35.6687 140.109 35.0417 140.109 34.193V28.778H143.073Z" fill="white"/>
<path d="M40 38.9495C37.157 38.9697 34.314 38.9798 31.4711 39C28.5977 34.6566 25.7143 30.303 22.841 25.9596C22.4565 25.3333 22.5374 24.5859 22.9725 24.1919C23.4885 23.7374 24.2675 23.9798 24.308 24C24.6216 24.101 24.824 24.2828 24.9352 24.404C25.2691 24.7273 25.5929 24.8586 25.7851 24.9091C26.0684 24.9899 26.3112 24.9899 26.6147 24.9798C26.6451 24.9798 26.9992 24.9697 27.3735 24.9091C29.4274 24.5455 30.8033 23.404 30.8033 23.404C31.5115 22.8182 31.8656 22.5152 31.9466 22C32.0983 21.0909 31.4407 20.0808 30.3379 19.7374C26.8373 19.7677 23.3367 19.8081 19.8361 19.8384C19.3808 19.7374 17.3068 19.2525 15.9915 17.2727C15.1012 15.9293 15.0101 14.5859 15 14C21.0097 14.0303 27.0295 14.0505 33.0393 14.0808C33.7374 14.2828 35.0728 14.7677 36.2363 16C37.4808 17.3232 37.8551 18.7778 38.0271 19.4747C38.2295 20.2929 38.2699 21.0202 38.2902 21.4444C38.3205 22.0606 38.3509 22.7576 38.189 23.6263C37.9664 24.798 37.5314 25.6162 37.4302 25.7778C36.7726 26.9697 35.8924 27.7071 35.2954 28.1111C34.8806 28.3535 34.4658 28.596 34.051 28.8384C36.0239 32.2222 38.017 35.5859 40 38.9495Z" fill="white"/>
<path d="M19.25 38.5C21.5972 38.5 23.5 36.5972 23.5 34.25C23.5 31.9028 21.5972 30 19.25 30C16.9028 30 15 31.9028 15 34.25C15 36.5972 16.9028 38.5 19.25 38.5Z" fill="white"/>
</svg>
