<svg width="60" height="60" viewBox="0 0 60 60" fill="none" xmlns="http://www.w3.org/2000/svg">
<path d="M58.1454 59.1672C58.1454 59.0025 58.1997 58.8416 58.3016 58.7046C58.4034 58.5677 58.5482 58.461 58.7176 58.3979C58.8869 58.3348 59.0734 58.3183 59.2532 58.3503C59.4331 58.3824 59.5983 58.4616 59.728 58.578C59.8577 58.6944 59.9461 58.8427 59.982 59.0042C60.0179 59.1656 59.9997 59.3331 59.9297 59.4853C59.8597 59.6374 59.741 59.7676 59.5887 59.8592C59.4363 59.9508 59.2571 59.9998 59.0737 60C58.8278 59.9998 58.592 59.912 58.418 59.7559C58.244 59.5998 58.146 59.3881 58.1454 59.1672Z" fill="white"/>
<path d="M43.609 59.1672C43.609 59.0025 43.6634 58.8416 43.7652 58.7046C43.867 58.5677 44.0118 58.461 44.1812 58.3979C44.3506 58.3348 44.5369 58.3183 44.7168 58.3503C44.8966 58.3824 45.0619 58.4616 45.1916 58.578C45.3213 58.6944 45.4097 58.8427 45.4456 59.0042C45.4815 59.1656 45.4633 59.3331 45.3933 59.4853C45.3233 59.6374 45.2046 59.7676 45.0522 59.8592C44.8999 59.9508 44.7207 59.9998 44.5374 60C44.2914 59.9998 44.0556 59.912 43.8816 59.7559C43.7076 59.5998 43.6096 59.3881 43.609 59.1672V59.1672Z" fill="white"/>
<path d="M29.0726 59.1672C29.0724 59.0022 29.1267 58.8409 29.2286 58.7037C29.3304 58.5664 29.4754 58.4594 29.645 58.3962C29.8146 58.3329 30.0013 58.3163 30.1815 58.3483C30.3616 58.3804 30.5272 58.4597 30.6571 58.5763C30.787 58.6928 30.8756 58.8414 30.9115 59.0032C30.9474 59.165 30.9291 59.3327 30.8589 59.4851C30.7886 59.6375 30.6696 59.7678 30.5169 59.8594C30.3642 59.9511 30.1847 60 30.001 60C29.755 60 29.519 59.9123 29.345 59.7561C29.1709 59.6 29.0729 59.3881 29.0726 59.1672Z" fill="white"/>
<path d="M14.5363 59.1672C14.536 59.0022 14.5903 58.8408 14.6922 58.7036C14.7942 58.5663 14.9392 58.4593 15.1089 58.396C15.2785 58.3328 15.4653 58.3162 15.6455 58.3484C15.8257 58.3805 15.9912 58.4599 16.1211 58.5766C16.251 58.6933 16.3395 58.8419 16.3752 59.0038C16.411 59.1656 16.3925 59.3333 16.3221 59.4857C16.2517 59.6381 16.1326 59.7683 15.9798 59.8599C15.8269 59.9514 15.6473 60.0002 15.4635 60C15.2177 59.9997 14.982 59.9119 14.8082 59.7558C14.6343 59.5996 14.5365 59.388 14.5363 59.1672V59.1672Z" fill="white"/>
<path d="M6.42174e-07 59.1672C-0.000215361 59.0022 0.0540646 58.8408 0.155994 58.7036C0.257923 58.5663 0.402924 58.4593 0.572609 58.396C0.742294 58.3328 0.929028 58.3162 1.10922 58.3484C1.28941 58.3805 1.45493 58.4599 1.58483 58.5766C1.71474 58.6933 1.8032 58.8419 1.83899 59.0038C1.87478 59.1656 1.85629 59.3333 1.78589 59.4857C1.71549 59.6381 1.59631 59.7683 1.44347 59.8599C1.29063 59.9514 1.111 60.0002 0.927294 60C0.681449 59.9997 0.445761 59.9119 0.271922 59.7558C0.0980834 59.5996 0.000289702 59.388 6.42174e-07 59.1672Z" fill="white"/>
<path d="M58.1454 47.5009C58.1454 47.3363 58.1997 47.1753 58.3016 47.0384C58.4034 46.9014 58.5482 46.7947 58.7176 46.7316C58.8869 46.6685 59.0734 46.652 59.2532 46.6841C59.4331 46.7161 59.5983 46.7953 59.728 46.9117C59.8577 47.0281 59.9461 47.1764 59.982 47.3379C60.0179 47.4994 59.9997 47.6668 59.9297 47.819C59.8597 47.9712 59.741 48.1013 59.5887 48.1929C59.4363 48.2846 59.2571 48.3336 59.0737 48.3337C58.8277 48.3337 58.5918 48.246 58.4177 48.0899C58.2436 47.9337 58.1457 47.7219 58.1454 47.5009Z" fill="white"/>
<path d="M43.609 47.5009C43.609 47.3363 43.6634 47.1753 43.7652 47.0384C43.867 46.9014 44.0118 46.7947 44.1812 46.7316C44.3506 46.6685 44.5369 46.652 44.7168 46.6841C44.8966 46.7161 45.0619 46.7953 45.1916 46.9117C45.3213 47.0281 45.4097 47.1764 45.4456 47.3379C45.4815 47.4994 45.4633 47.6668 45.3933 47.819C45.3233 47.9712 45.2046 48.1013 45.0522 48.1929C44.8999 48.2846 44.7207 48.3336 44.5374 48.3337C44.2913 48.3337 44.0554 48.246 43.8813 48.0899C43.7072 47.9337 43.6093 47.7219 43.609 47.5009Z" fill="white"/>
<path d="M29.0726 47.5009C29.0724 47.3359 29.1267 47.1746 29.2286 47.0374C29.3304 46.9001 29.4754 46.7931 29.645 46.7299C29.8146 46.6666 30.0013 46.65 30.1815 46.682C30.3616 46.7141 30.5272 46.7934 30.6571 46.91C30.787 47.0266 30.8756 47.1751 30.9115 47.3369C30.9474 47.4987 30.9291 47.6664 30.8589 47.8188C30.7886 47.9712 30.6696 48.1015 30.5169 48.1931C30.3642 48.2848 30.1847 48.3337 30.001 48.3337C29.8792 48.3338 29.7585 48.3124 29.6458 48.2706C29.5332 48.2288 29.4308 48.1675 29.3446 48.0901C29.2584 48.0128 29.19 47.9209 29.1433 47.8198C29.0967 47.7187 29.0726 47.6103 29.0726 47.5009V47.5009Z" fill="white"/>
<path d="M14.5363 47.5009C14.536 47.3359 14.5903 47.1746 14.6922 47.0373C14.7942 46.9 14.9392 46.793 15.1089 46.7298C15.2785 46.6665 15.4653 46.6499 15.6455 46.6821C15.8257 46.7142 15.9912 46.7937 16.1211 46.9103C16.251 47.027 16.3395 47.1756 16.3752 47.3375C16.411 47.4993 16.3925 47.6671 16.3221 47.8194C16.2517 47.9718 16.1326 48.102 15.9798 48.1936C15.8269 48.2851 15.6473 48.3339 15.4635 48.3337C15.2176 48.3337 14.9817 48.246 14.8078 48.0898C14.6339 47.9336 14.5363 47.7217 14.5363 47.5009V47.5009Z" fill="white"/>
<path d="M6.42174e-07 47.5009C-0.000215361 47.3359 0.0540646 47.1746 0.155994 47.0373C0.257923 46.9 0.402924 46.793 0.572609 46.7298C0.742294 46.6665 0.929028 46.6499 1.10922 46.6821C1.28941 46.7142 1.45493 46.7937 1.58483 46.9103C1.71474 47.027 1.8032 47.1756 1.83899 47.3375C1.87478 47.4993 1.85629 47.6671 1.78589 47.8194C1.71549 47.9718 1.59631 48.102 1.44347 48.1936C1.29063 48.2851 1.111 48.3339 0.927294 48.3337C0.68136 48.3337 0.44549 48.246 0.271589 48.0898C0.0976875 47.9336 6.42174e-07 47.7217 6.42174e-07 47.5009V47.5009Z" fill="white"/>
<path d="M58.1454 35.8337C58.1456 35.669 58.2001 35.5082 58.3021 35.3714C58.4041 35.2345 58.5489 35.128 58.7183 35.065C58.8877 35.0021 59.0741 34.9857 59.2539 35.0179C59.4336 35.0501 59.5988 35.1294 59.7284 35.2458C59.858 35.3622 59.9463 35.5105 59.9821 35.6719C60.0179 35.8334 59.9996 36.0008 59.9296 36.1529C59.8595 36.3051 59.7408 36.4351 59.5885 36.5267C59.4362 36.6183 59.2571 36.6673 59.0737 36.6675C58.8275 36.6675 58.5914 36.5796 58.4173 36.4233C58.2432 36.2669 58.1454 36.0548 58.1454 35.8337Z" fill="white"/>
<path d="M44.5374 36.6684C45.0501 36.6684 45.4658 36.2951 45.4658 35.8346C45.4658 35.3741 45.0501 35.0008 44.5374 35.0008C44.0247 35.0008 43.609 35.3741 43.609 35.8346C43.609 36.2951 44.0247 36.6684 44.5374 36.6684Z" fill="white"/>
<path d="M30.001 36.6684C30.5138 36.6684 30.9294 36.2951 30.9294 35.8346C30.9294 35.3741 30.5138 35.0008 30.001 35.0008C29.4883 35.0008 29.0726 35.3741 29.0726 35.8346C29.0726 36.2951 29.4883 36.6684 30.001 36.6684Z" fill="white"/>
<path d="M14.5363 35.8336C14.5363 35.6687 14.5907 35.5074 14.6928 35.3703C14.7948 35.2331 14.9399 35.1263 15.1096 35.0632C15.2793 35.0001 15.4661 34.9837 15.6462 35.0159C15.8263 35.0482 15.9917 35.1277 16.1215 35.2444C16.2513 35.3611 16.3396 35.5097 16.3753 35.6716C16.411 35.8334 16.3925 36.001 16.322 36.1534C16.2516 36.3057 16.1324 36.4359 15.9796 36.5274C15.8268 36.6189 15.6472 36.6676 15.4635 36.6674C15.3417 36.6674 15.221 36.6458 15.1084 36.6039C14.9959 36.562 14.8936 36.5006 14.8075 36.4232C14.7214 36.3457 14.6531 36.2538 14.6065 36.1526C14.56 36.0515 14.5361 35.9431 14.5363 35.8336V35.8336Z" fill="white"/>
<path d="M6.43531e-07 35.8336C7.70634e-07 35.6687 0.0544664 35.5074 0.156527 35.3703C0.258588 35.2331 0.403638 35.1263 0.573343 35.0632C0.743047 35.0001 0.929767 34.9837 1.10989 35.0159C1.29001 35.0482 1.45544 35.1277 1.58523 35.2444C1.71503 35.3611 1.80336 35.5097 1.83905 35.6716C1.87475 35.8334 1.85623 36.001 1.78579 36.1534C1.71536 36.3057 1.59619 36.4359 1.44337 36.5274C1.29056 36.6189 1.11096 36.6676 0.927294 36.6674C0.805428 36.6674 0.684752 36.6458 0.572176 36.6039C0.4596 36.562 0.357311 36.5006 0.271189 36.4232C0.185067 36.3457 0.116801 36.2538 0.0702643 36.1526C0.0237276 36.0515 -0.000142897 35.9431 6.43531e-07 35.8336V35.8336Z" fill="white"/>
<path d="M58.1454 24.1674C58.1456 24.0028 58.2001 23.8419 58.3021 23.7051C58.4041 23.5683 58.5489 23.4617 58.7183 23.3988C58.8877 23.3358 59.0741 23.3194 59.2539 23.3516C59.4336 23.3838 59.5988 23.4631 59.7284 23.5795C59.858 23.6959 59.9463 23.8442 59.9821 24.0056C60.0179 24.1671 59.9996 24.3345 59.9296 24.4866C59.8595 24.6388 59.7408 24.7688 59.5885 24.8604C59.4362 24.952 59.2571 25.001 59.0737 25.0012C58.8276 25.0009 58.5917 24.913 58.4176 24.7567C58.2436 24.6004 58.1457 24.3884 58.1454 24.1674V24.1674Z" fill="white"/>
<path d="M44.5374 25.0021C45.0501 25.0021 45.4658 24.6288 45.4658 24.1683C45.4658 23.7079 45.0501 23.3345 44.5374 23.3345C44.0247 23.3345 43.609 23.7079 43.609 24.1683C43.609 24.6288 44.0247 25.0021 44.5374 25.0021Z" fill="white"/>
<path d="M30.001 25.0021C30.5138 25.0021 30.9294 24.6288 30.9294 24.1683C30.9294 23.7079 30.5138 23.3345 30.001 23.3345C29.4883 23.3345 29.0726 23.7079 29.0726 24.1683C29.0726 24.6288 29.4883 25.0021 30.001 25.0021Z" fill="white"/>
<path d="M14.5363 24.1673C14.5363 24.0024 14.5907 23.8411 14.6928 23.704C14.7948 23.5669 14.9399 23.46 15.1096 23.3969C15.2793 23.3338 15.4661 23.3174 15.6462 23.3496C15.8263 23.3819 15.9917 23.4614 16.1215 23.5781C16.2513 23.6948 16.3396 23.8435 16.3753 24.0053C16.411 24.1671 16.3925 24.3348 16.322 24.4871C16.2516 24.6394 16.1324 24.7696 15.9796 24.8611C15.8268 24.9526 15.6472 25.0013 15.4635 25.0011C15.2175 25.0009 14.9816 24.9129 14.8078 24.7566C14.6339 24.6002 14.5363 24.3883 14.5363 24.1673Z" fill="white"/>
<path d="M0 24.1673C1.27103e-07 24.0024 0.0544658 23.8411 0.156527 23.704C0.258587 23.5669 0.403638 23.46 0.573342 23.3969C0.743046 23.3338 0.929766 23.3174 1.10989 23.3496C1.29 23.3819 1.45544 23.4614 1.58523 23.5781C1.71503 23.6948 1.80336 23.8435 1.83905 24.0053C1.87475 24.1671 1.85622 24.3348 1.78579 24.4871C1.71535 24.6394 1.59619 24.7696 1.44337 24.8611C1.29056 24.9526 1.11096 25.0013 0.927293 25.0011C0.681259 25.0009 0.445392 24.9129 0.271522 24.7566C0.0976515 24.6002 -1.70266e-07 24.3883 0 24.1673V24.1673Z" fill="white"/>
<path d="M58.1454 12.5011C58.1454 12.3364 58.1997 12.1754 58.3016 12.0385C58.4034 11.9016 58.5482 11.7948 58.7176 11.7317C58.8869 11.6687 59.0734 11.6521 59.2532 11.6842C59.4331 11.7162 59.5983 11.7955 59.728 11.9118C59.8577 12.0282 59.9461 12.1765 59.982 12.338C60.0179 12.4995 59.9997 12.6669 59.9297 12.8191C59.8597 12.9713 59.741 13.1014 59.5887 13.1931C59.4363 13.2847 59.2571 13.3337 59.0737 13.3339C58.8278 13.3336 58.592 13.2458 58.418 13.0897C58.244 12.9336 58.146 12.7219 58.1454 12.5011Z" fill="white"/>
<path d="M44.5374 13.3348C45.0501 13.3348 45.4658 12.9615 45.4658 12.501C45.4658 12.0406 45.0501 11.6673 44.5374 11.6673C44.0247 11.6673 43.609 12.0406 43.609 12.501C43.609 12.9615 44.0247 13.3348 44.5374 13.3348Z" fill="white"/>
<path d="M30.001 13.3348C30.5138 13.3348 30.9294 12.9615 30.9294 12.501C30.9294 12.0406 30.5138 11.6673 30.001 11.6673C29.4883 11.6673 29.0726 12.0406 29.0726 12.501C29.0726 12.9615 29.4883 13.3348 30.001 13.3348Z" fill="white"/>
<path d="M15.4635 11.6673C15.6472 11.6671 15.8268 11.7158 15.9796 11.8073C16.1324 11.8988 16.2516 12.029 16.322 12.1813C16.3925 12.3336 16.411 12.5013 16.3753 12.6631C16.3396 12.8249 16.2513 12.9736 16.1215 13.0903C15.9917 13.207 15.8263 13.2865 15.6462 13.3188C15.4661 13.351 15.2793 13.3346 15.1096 13.2715C14.9399 13.2084 14.7948 13.1015 14.6928 12.9644C14.5907 12.8273 14.5363 12.666 14.5363 12.5011C14.5363 12.2801 14.6339 12.0682 14.8078 11.9118C14.9816 11.7555 15.2175 11.6675 15.4635 11.6673" fill="white"/>
<path d="M6.42174e-07 12.501C-0.000215361 12.336 0.0540646 12.1747 0.155994 12.0375C0.257923 11.9002 0.402924 11.7931 0.572609 11.7299C0.742294 11.6667 0.929028 11.6501 1.10922 11.6822C1.28941 11.7144 1.45493 11.7938 1.58483 11.9105C1.71474 12.0272 1.8032 12.1758 1.83899 12.3376C1.87478 12.4995 1.85629 12.6672 1.78589 12.8196C1.71549 12.972 1.59631 13.1022 1.44347 13.1938C1.29063 13.2853 1.111 13.334 0.927294 13.3339C0.681449 13.3336 0.445761 13.2458 0.271922 13.0896C0.0980834 12.9335 0.000289702 12.7218 6.42174e-07 12.501Z" fill="white"/>
<path d="M58.1454 0.83384C58.1456 0.669208 58.2001 0.508316 58.3021 0.371511C58.4041 0.234705 58.5489 0.12812 58.7183 0.0652073C58.8877 0.00229507 59.0741 -0.0141372 59.2539 0.0180284C59.4336 0.0501941 59.5988 0.129518 59.7284 0.24593C59.858 0.362342 59.9463 0.510637 59.9821 0.672096C60.0179 0.833555 59.9996 1.00091 59.9296 1.15305C59.8595 1.30518 59.7408 1.43527 59.5885 1.52685C59.4362 1.61844 59.2571 1.66742 59.0737 1.66761C58.8275 1.66761 58.5914 1.57976 58.4173 1.4234C58.2432 1.26703 58.1454 1.05498 58.1454 0.83384Z" fill="white"/>
<path d="M43.609 0.83384C43.6092 0.669208 43.6638 0.508316 43.7657 0.371511C43.8677 0.234705 44.0126 0.12812 44.182 0.0652073C44.3513 0.00229507 44.5377 -0.0141372 44.7175 0.0180284C44.8972 0.0501941 45.0624 0.129518 45.192 0.24593C45.3216 0.362342 45.4099 0.510637 45.4457 0.672096C45.4815 0.833555 45.4632 1.00091 45.3932 1.15305C45.3231 1.30518 45.2045 1.43527 45.0521 1.52685C44.8998 1.61844 44.7207 1.66742 44.5374 1.66761C44.2911 1.66761 44.055 1.57976 43.8809 1.4234C43.7068 1.26703 43.609 1.05498 43.609 0.83384V0.83384Z" fill="white"/>
<path d="M29.0726 0.833808C29.0726 0.668899 29.1271 0.507669 29.2291 0.370551C29.3311 0.233434 29.4761 0.126578 29.6457 0.0634697C29.8154 0.000361613 30.0021 -0.0161508 30.1822 0.0160214C30.3622 0.0481937 30.5277 0.127614 30.6575 0.244222C30.7873 0.360831 30.8758 0.509396 30.9116 0.671137C30.9474 0.832878 30.929 1.00051 30.8588 1.15286C30.7885 1.30522 30.6695 1.43544 30.5168 1.52706C30.3641 1.61868 30.1846 1.66758 30.001 1.66758C29.8791 1.66771 29.7583 1.64624 29.6456 1.60439C29.5329 1.56253 29.4305 1.50111 29.3443 1.42366C29.258 1.34621 29.1896 1.25423 29.143 1.15301C29.0964 1.05179 29.0725 0.94334 29.0726 0.833808V0.833808Z" fill="white"/>
<path d="M14.5363 0.833816C14.5363 0.668865 14.5907 0.507608 14.6928 0.370469C14.7948 0.233331 14.9399 0.126467 15.1096 0.0633877C15.2793 0.000308574 15.4661 -0.0161627 15.6462 0.0160891C15.8263 0.0483409 15.9917 0.127853 16.1215 0.244559C16.2513 0.361266 16.3396 0.509938 16.3753 0.671744C16.411 0.833549 16.3925 1.00122 16.322 1.15356C16.2516 1.3059 16.1324 1.43605 15.9796 1.52755C15.8268 1.61905 15.6472 1.66778 15.4635 1.66759C15.3417 1.66759 15.221 1.64604 15.1084 1.60412C14.9959 1.56221 14.8936 1.50078 14.8075 1.42334C14.7214 1.3459 14.6531 1.25397 14.6065 1.15281C14.56 1.05166 14.5361 0.943266 14.5363 0.833816V0.833816Z" fill="white"/>
<path d="M6.43531e-07 0.833816C7.70634e-07 0.668865 0.0544664 0.507608 0.156527 0.370469C0.258588 0.233331 0.403638 0.126467 0.573343 0.0633877C0.743047 0.000308574 0.929767 -0.0161627 1.10989 0.0160891C1.29001 0.0483409 1.45544 0.127853 1.58523 0.244559C1.71503 0.361266 1.80336 0.509938 1.83905 0.671744C1.87475 0.833549 1.85623 1.00122 1.78579 1.15356C1.71536 1.3059 1.59619 1.43605 1.44337 1.52755C1.29056 1.61905 1.11096 1.66778 0.927294 1.66759C0.805428 1.66759 0.684752 1.64604 0.572176 1.60412C0.4596 1.56221 0.357311 1.50078 0.271189 1.42334C0.185067 1.3459 0.116801 1.25397 0.0702643 1.15281C0.0237276 1.05166 -0.000142897 0.943266 6.43531e-07 0.833816V0.833816Z" fill="white"/>
</svg>
