<svg width="60" height="60" viewBox="0 0 60 60" fill="none" xmlns="http://www.w3.org/2000/svg">
<path d="M59.2865 0.545808C58.8306 0.142893 58.2266 -0.0505923 57.6214 0.0121867L19.05 4.29786C17.9643 4.41801 17.1428 5.33559 17.1429 6.42782V44.6158C15.2008 43.4536 12.9777 42.8452 10.7144 42.8565C4.80648 42.8566 0 46.7008 0 51.4279C0 56.155 4.80648 59.9994 10.7142 59.9994C16.622 59.9994 21.4285 56.1572 21.4285 51.4279V19.0709L55.7142 15.2523V40.3237C53.7714 39.1638 51.5483 38.5576 49.2856 38.5708C43.3778 38.5708 38.5714 42.4151 38.5714 47.1422C38.5714 51.8694 43.3779 55.7137 49.2856 55.7137C55.1934 55.7137 59.9999 51.8715 59.9999 47.1422V2.14228C59.9999 1.53282 59.7405 0.952239 59.2865 0.545808Z" fill="white"/>
</svg>
