<svg width="60" height="60" viewBox="0 0 60 60" fill="none" xmlns="http://www.w3.org/2000/svg">
<g clip-path="url(#clip0)">
<path d="M45.2477 -4H58.2752C59.0858 -4 59.7431 -3.34275 59.7431 -2.53211V54.5321C59.7431 55.3427 59.0858 56 58.2752 56H45.2477C44.437 56 43.7798 55.3427 43.7798 54.5321V-2.53211C43.7798 -3.34275 44.437 -4 45.2477 -4Z" fill="white"/>
<path d="M17.7247 -4H30.7522C31.5629 -4 32.2201 -3.34275 32.2201 -2.53211V54.5321C32.2201 55.3427 31.5629 56 30.7522 56H17.7247C16.9141 56 16.2568 55.3427 16.2568 54.5321V-2.53211C16.2568 -3.34275 16.9141 -4 17.7247 -4Z" fill="white"/>
</g>
<defs>
<clipPath id="clip0">
<rect width="60" height="60" fill="white"/>
</clipPath>
</defs>
</svg>
