<svg width="60" height="60" viewBox="0 0 60 60" fill="none" xmlns="http://www.w3.org/2000/svg">
<path d="M54.6429 24.6429H36.4286C35.8369 24.6429 35.3571 24.1631 35.3571 23.5714V5.35714C35.3571 2.39868 32.9585 0 30 0C27.0415 0 24.6429 2.39868 24.6429 5.35714V23.5714C24.6429 24.1631 24.1631 24.6429 23.5714 24.6429H5.35714C2.39868 24.6429 0 27.0415 0 30C0 32.9585 2.39868 35.3571 5.35714 35.3571H23.5714C24.1631 35.3571 24.6429 35.8369 24.6429 36.4286V54.6429C24.6429 57.6013 27.0415 60 30 60C32.9585 60 35.3571 57.6013 35.3571 54.6429V36.4286C35.3571 35.8369 35.8369 35.3571 36.4286 35.3571H54.6429C57.6013 35.3571 60 32.9585 60 30C60 27.0415 57.6013 24.6429 54.6429 24.6429Z" fill="white"/>
</svg>
